<svg xmlns="http://www.w3.org/2000/svg" version="1.1" xmlns:xlink="http://www.w3.org/1999/xlink" viewBox="0 0 200 200"><rect width="200" height="200" fill="url('#gradient')"></rect><defs><linearGradient id="gradient" gradientTransform="rotate(65 0.5 0.5)"><stop offset="0%" stop-color="#c0eee2"></stop><stop offset="100%" stop-color="#7489a9"></stop></linearGradient></defs><g><g fill="#8a3c32" transform="matrix(8.253904282115869,0,0,8.253904282115869,-4.865934070051466,158.68463541434454)" stroke="#edd7cf" stroke-width="0.15"><path d="M5.75 0L1.07 0L1.07-14.22L5.65-14.22Q7.54-14.22 9.04-13.36Q10.55-12.51 11.39-10.95Q12.24-9.39 12.25-7.46L12.25-7.46L12.25-6.81Q12.25-4.85 11.42-3.31Q10.60-1.76 9.10-0.88Q7.60-0.01 5.75 0L5.75 0ZM5.65-11.57L4.50-11.57L4.50-2.64L5.69-2.64Q7.17-2.64 7.96-3.69Q8.75-4.74 8.75-6.81L8.75-6.81L8.75-7.42Q8.75-9.48 7.96-10.53Q7.17-11.57 5.65-11.57L5.65-11.57ZM24.34-14.22L24.34-11.57L20.07-11.57L20.07 0L16.64 0L16.64-11.57L12.45-11.57L12.45-14.22L24.34-14.22Z"></path></g></g></svg>